<?xml version="1.0" encoding="UTF-8"?>
<svg version="1.1" xmlns="http://www.w3.org/2000/svg" width="61" height="46">
<path d="M0 0 C20.13 0 40.26 0 61 0 C61 15.18 61 30.36 61 46 C40.87 46 20.74 46 0 46 C0 30.82 0 15.64 0 0 Z " fill="#9BD9E9" transform="translate(0,0)"/>
<path d="M0 0 C20.13 0 40.26 0 61 0 C61 15.18 61 30.36 61 46 C40.87 46 20.74 46 0 46 C0 30.82 0 15.64 0 0 Z M4 4 C4 16.21 4 28.42 4 41 C21.16 41 38.32 41 56 41 C56 28.79 56 16.58 56 4 C38.84 4 21.68 4 4 4 Z " fill="#ED1C24" transform="translate(0,0)"/>
<path d="M0 0 C3.4375 0.4375 3.4375 0.4375 6.4375 2.4375 C6.4375 3.0975 6.4375 3.7575 6.4375 4.4375 C4.41927083 4.11197917 2.40104167 3.78645833 0.3828125 3.4609375 C-0.25914063 3.45320312 -0.90109375 3.44546875 -1.5625 3.4375 C-3.71955515 5.1939331 -3.71955515 5.1939331 -3.828125 7.3125 C-3.82296875 8.01375 -3.8178125 8.715 -3.8125 9.4375 C-3.81765625 10.13875 -3.8228125 10.84 -3.828125 11.5625 C-3.71955515 13.6810669 -3.71955515 13.6810669 -1.5625 15.4375 C0.36005782 15.20546716 2.28238695 14.96536579 4.1953125 14.6640625 C7.72627744 14.3072751 10.94340768 14.87594945 14.4375 15.4375 C14.7675 14.1175 15.0975 12.7975 15.4375 11.4375 C14.48875 11.14875 13.54 10.86 12.5625 10.5625 C9.4375 9.4375 9.4375 9.4375 7.4375 7.4375 C7.1875 4.9375 7.1875 4.9375 7.4375 2.4375 C9.4375 0.4375 9.4375 0.4375 11.3828125 0.2421875 C13.40104167 0.30729167 15.41927083 0.37239583 17.4375 0.4375 C17.7675 1.4275 18.0975 2.4175 18.4375 3.4375 C16.1275 3.4375 13.8175 3.4375 11.4375 3.4375 C11.4375 4.4275 11.4375 5.4175 11.4375 6.4375 C13.7475 7.7575 16.0575 9.0775 18.4375 10.4375 C17.5625 17.3125 17.5625 17.3125 16.4375 18.4375 C14.98082311 18.51004367 13.5208275 18.52123778 12.0625 18.5 C10.87527344 18.48646484 10.87527344 18.48646484 9.6640625 18.47265625 C8.92929687 18.46105469 8.19453125 18.44945313 7.4375 18.4375 C5.12349899 18.4375 2.80935092 18.54087454 0.5 18.6875 C-2.41222931 18.66068389 -3.46094591 18.4958936 -6.0625 17 C-8.30567466 13.16790996 -8.30965761 9.76639256 -7.5625 5.4375 C-5.48124201 1.35823433 -4.57529314 0.5618781 0 0 Z " fill="#FFF430" transform="translate(30.5625,11.5625)"/>
<path d="M0 0 C2.01822917 0.06510417 4.03645833 0.13020833 6.0546875 0.1953125 C6.3846875 1.1853125 6.7146875 2.1753125 7.0546875 3.1953125 C4.7446875 3.1953125 2.4346875 3.1953125 0.0546875 3.1953125 C0.0546875 4.1853125 0.0546875 5.1753125 0.0546875 6.1953125 C3.5196875 8.1753125 3.5196875 8.1753125 7.0546875 10.1953125 C6.1796875 17.0703125 6.1796875 17.0703125 5.0546875 18.1953125 C3.53540712 18.26711214 2.01301268 18.27923257 0.4921875 18.2578125 C-0.33410156 18.24878906 -1.16039062 18.23976563 -2.01171875 18.23046875 C-2.96884766 18.21306641 -2.96884766 18.21306641 -3.9453125 18.1953125 C-4.2753125 17.2053125 -4.6053125 16.2153125 -4.9453125 15.1953125 C-2.3053125 15.1953125 0.3346875 15.1953125 3.0546875 15.1953125 C3.3846875 13.8753125 3.7146875 12.5553125 4.0546875 11.1953125 C3.1059375 10.9065625 2.1571875 10.6178125 1.1796875 10.3203125 C-1.9453125 9.1953125 -1.9453125 9.1953125 -3.9453125 7.1953125 C-4.1953125 4.6953125 -4.1953125 4.6953125 -3.9453125 2.1953125 C-1.9453125 0.1953125 -1.9453125 0.1953125 0 0 Z " fill="#FFF432" transform="translate(13.9453125,11.8046875)"/>
<path d="M0 0 C0.268125 0.598125 0.53625 1.19625 0.8125 1.8125 C2.47370091 4.87260694 3.81204519 6.62664277 7.1875 7.6875 C7.785625 7.790625 8.38375 7.89375 9 8 C9 8.66 9 9.32 9 10 C5.42236811 10.32523926 3.60457419 10.42956587 0.625 8.3125 C-1.28250465 5.59797415 -1.43903308 4.2488448 -1 1 C-0.67 0.67 -0.34 0.34 0 0 Z " fill="#FFF424" transform="translate(24,20)"/>
<path d="M0 0 C2.01822917 0.06510417 4.03645833 0.13020833 6.0546875 0.1953125 C6.3846875 1.1853125 6.7146875 2.1753125 7.0546875 3.1953125 C5.9409375 3.1334375 4.8271875 3.0715625 3.6796875 3.0078125 C1.8853125 3.100625 1.8853125 3.100625 0.0546875 3.1953125 C-0.9353125 4.6803125 -0.9353125 4.6803125 -1.9453125 6.1953125 C-2.9353125 6.6903125 -2.9353125 6.6903125 -3.9453125 7.1953125 C-4.0703125 4.8203125 -4.0703125 4.8203125 -3.9453125 2.1953125 C-1.9453125 0.1953125 -1.9453125 0.1953125 0 0 Z " fill="#FFF54C" transform="translate(41.9453125,11.8046875)"/>
<path d="M0 0 C2.01822917 0.06510417 4.03645833 0.13020833 6.0546875 0.1953125 C6.3846875 1.1853125 6.7146875 2.1753125 7.0546875 3.1953125 C5.9409375 3.1334375 4.8271875 3.0715625 3.6796875 3.0078125 C1.8853125 3.100625 1.8853125 3.100625 0.0546875 3.1953125 C-0.9353125 4.6803125 -0.9353125 4.6803125 -1.9453125 6.1953125 C-2.9353125 6.6903125 -2.9353125 6.6903125 -3.9453125 7.1953125 C-4.0703125 4.8203125 -4.0703125 4.8203125 -3.9453125 2.1953125 C-1.9453125 0.1953125 -1.9453125 0.1953125 0 0 Z " fill="#FFF54C" transform="translate(13.9453125,11.8046875)"/>
<path d="M0 0 C0 0.99 0 1.98 0 3 C-0.763125 2.814375 -1.52625 2.62875 -2.3125 2.4375 C-5.08967375 1.77180827 -5.08967375 1.77180827 -8 3 C-8 2.01 -8 1.02 -8 0 C-5.13822943 -1.43088528 -3.06624227 -0.59991697 0 0 Z " fill="#FFF661" transform="translate(41,27)"/>
</svg>
